<?xml version="1.0" standalone="no"?>
<!DOCTYPE svg PUBLIC "-//W3C//DTD SVG 20010904//EN"
 "http://www.w3.org/TR/2001/REC-SVG-20010904/DTD/svg10.dtd">
<svg version="1.0" xmlns="http://www.w3.org/2000/svg"
 width="638.000000pt" height="638.000000pt" viewBox="0 0 638.000000 638.000000"
 preserveAspectRatio="xMidYMid meet">
<metadata>
Created by potrace 1.14, written by Peter Selinger 2001-2017
</metadata>
<g transform="translate(0.000000,638.000000) scale(0.100000,-0.100000)"
fill="#000000" stroke="none">
<path d="M3280 5855 c0 -15 -2 -17 -9 -7 -7 11 -10 10 -15 -3 -8 -23 -8 -25 8
-25 9 0 13 -12 13 -40 0 -22 -4 -40 -9 -40 -4 0 -8 -5 -8 -11 0 -5 4 -8 9 -4
6 3 9 -13 9 -37 0 -36 -2 -39 -9 -20 -5 13 -7 28 -3 33 3 5 0 9 -6 9 -6 0 -10
-15 -8 -35 1 -21 7 -35 15 -35 7 0 13 -5 13 -11 0 -5 -6 -7 -12 -3 -9 5 -9 2
1 -9 8 -11 9 -17 2 -17 -7 0 -8 -8 0 -27 8 -22 7 -30 -6 -39 -12 -9 -15 -28
-14 -83 1 -40 4 -69 7 -67 3 3 4 31 3 63 -1 31 1 54 4 51 4 -3 7 -36 9 -72 2
-50 0 -66 -11 -66 -17 0 -17 -8 2 -27 16 -15 11 -38 -6 -28 -5 4 -9 -1 -9 -10
0 -10 6 -15 13 -12 8 3 13 -5 13 -24 1 -16 -2 -29 -5 -29 -13 0 -2 -382 11
-415 6 -16 80 -169 163 -340 83 -170 204 -421 270 -557 66 -137 123 -248 126
-248 4 0 73 106 155 235 126 201 150 234 168 230 12 -3 167 -28 346 -55 424
-66 1632 -260 1645 -264 6 -2 -219 -78 -500 -170 l-510 -168 -180 -177 c-99
-98 -307 -301 -462 -452 -156 -151 -283 -276 -283 -279 0 -3 104 -47 230 -99
127 -52 230 -98 230 -103 0 -4 32 -205 70 -446 108 -668 150 -947 150 -991 0
-38 -1 -39 -62 -64 -35 -15 -83 -32 -107 -39 -53 -15 -41 -29 -213 233 l-123
187 -455 235 c-600 310 -640 330 -647 323 -4 -3 -1 -6 7 -6 9 0 10 -9 5 -32
-4 -18 -7 -59 -6 -90 2 -55 1 -57 -26 -61 l-28 -4 28 -2 c28 -1 37 -15 15 -24
-10 -4 -10 -6 0 -6 17 -1 15 -30 -3 -38 -14 -5 -14 -8 0 -29 18 -28 19 -38 3
-28 -10 6 -10 4 0 -7 17 -19 16 -50 -3 -43 -8 4 -15 1 -15 -5 0 -6 5 -11 10
-11 6 0 10 -4 10 -9 0 -5 -10 -7 -22 -5 l-23 5 23 -12 c12 -7 22 -21 22 -31 0
-11 -4 -17 -8 -14 -4 2 -9 -4 -9 -15 -1 -10 3 -19 8 -19 6 0 7 5 4 10 -3 6 -1
10 4 10 6 0 11 -20 11 -46 0 -25 -3 -44 -7 -42 -5 2 -34 16 -66 31 l-58 27
-359 -180 c-197 -99 -361 -180 -365 -180 -3 0 -3 26 -1 58 3 40 2 50 -5 34 -5
-13 -7 -41 -6 -63 2 -22 -1 -43 -5 -46 -12 -7 -3 124 9 140 9 11 10 94 5 330
-1 46 -6 77 -13 77 -5 0 -7 -5 -3 -12 4 -6 3 -8 -4 -4 -6 3 -98 -34 -204 -84
l-193 -91 -354 -459 c-195 -253 -356 -458 -358 -456 -4 4 365 2027 371 2033 2
2 135 41 295 87 160 45 293 85 296 88 6 5 -846 896 -870 910 -6 4 -274 91
-596 194 -321 102 -587 189 -591 193 -6 5 1134 170 1898 274 l161 22 109 215
c60 118 110 217 112 221 1 3 -13 3 -33 1 -23 -3 -32 -8 -28 -16 4 -7 1 -7 -8
1 -14 11 -29 -14 -113 -177 -61 -118 -103 -190 -112 -190 -14 0 -254 -31 -839
-109 -115 -16 -457 -61 -760 -101 -302 -40 -557 -74 -565 -77 -9 -2 272 -290
768 -786 l782 -782 -199 -1080 c-109 -594 -197 -1082 -195 -1084 3 -3 1437
725 1844 936 l125 65 635 -342 c349 -189 788 -425 975 -526 187 -101 340 -182
341 -181 1 1 -9 65 -21 142 -42 248 -325 2022 -325 2032 0 6 172 174 382 374
1207 1149 1211 1153 1192 1160 -11 4 -122 24 -249 43 -296 46 -910 141 -1515
236 -140 22 -287 45 -327 51 l-72 12 -96 196 c-54 109 -106 203 -117 210 -13
8 -18 8 -13 1 7 -11 -43 -4 -57 9 -4 3 -128 254 -276 556 -320 655 -341 696
-342 670z m-843 -4622 c-3 -10 -5 -2 -5 17 0 19 2 27 5 18 2 -10 2 -26 0 -35z
m0 -55 c-3 -7 -5 -2 -5 12 0 14 2 19 5 13 2 -7 2 -19 0 -25z"/>
<path d="M3243 5566 c0 -16 4 -23 13 -19 10 4 11 10 3 24 -13 25 -16 24 -16
-5z"/>
<path d="M3172 4528 c-46 -90 -166 -328 -268 -530 -102 -203 -190 -368 -195
-368 -20 0 -1183 -161 -1187 -164 -1 -2 190 -195 425 -429 l427 -425 -126
-593 c-70 -326 -126 -595 -124 -597 2 -2 251 120 553 271 l549 275 429 -227
c237 -125 478 -253 538 -285 89 -48 107 -54 107 -39 0 10 -40 281 -88 603
l-88 584 115 111 c121 116 620 587 706 667 49 45 49 47 25 52 -14 4 -272 44
-575 91 -302 47 -562 88 -578 91 -19 4 -32 16 -42 39 -30 74 -509 1035 -515
1035 -3 0 -43 -73 -88 -162z"/>
<path d="M3265 1640 c-3 -5 -2 -10 4 -10 5 0 13 5 16 10 3 6 2 10 -4 10 -5 0
-13 -4 -16 -10z"/>
<path d="M3250 1565 c0 -8 2 -15 4 -15 2 0 6 7 10 15 3 8 1 15 -4 15 -6 0 -10
-7 -10 -15z"/>
</g>
</svg>
